HIERARCHY
ROOT hip
{
	OFFSET 0.000000 0.000000 0.000000 
	CHANNELS 6 Xposition Yposition Zposition Xrotation Zrotation Yrotation
	JOINT abdomen
	{
		OFFSET 0.000000 3.402643 0.000000 
		CHANNELS 3 Xrotation Zrotation Yrotation
		JOINT chest
		{
			OFFSET 0.000000 8.438565 -0.680529 
			CHANNELS 3 Xrotation Zrotation Yrotation
			JOINT neck
			{
				OFFSET 0.000000 10.207942 -0.272212 
				CHANNELS 3 Xrotation Zrotation Yrotation
				JOINT head
				{
					OFFSET 0.000000 3.130431 0.000000 
					CHANNELS 3 Xrotation Zrotation Yrotation
					End Site
					{
						OFFSET 0.000000 3.130435 0.000000 
					}
				}
			}
			JOINT lCollar
			{
				OFFSET 3.470700 6.669187 -0.816635 
				CHANNELS 3 Yrotation Zrotation Xrotation
				JOINT lShldr
				{
					OFFSET 3.198488 0.000000 0.000000 
					CHANNELS 3 Zrotation Yrotation Xrotation
					JOINT lForeArm
					{
						OFFSET 10.139888 0.000000 0.000000 
						CHANNELS 3 Yrotation Zrotation Xrotation
						JOINT lHand
						{
							OFFSET 8.370511 0.000000 0.000000 
							CHANNELS 3 Zrotation Yrotation Xrotation
							End Site
							{
								OFFSET 4.083176 0.000000 0.000000 
							}
						}
					}
				}
			}
			JOINT rCollar
			{
				OFFSET -3.470700 6.669187 -0.816635 
				CHANNELS 3 Yrotation Zrotation Xrotation
				JOINT rShldr
				{
					OFFSET -3.198488 0.000000 0.000000 
					CHANNELS 3 Zrotation Yrotation Xrotation
					JOINT rForeArm
					{
						OFFSET -10.139888 0.000000 0.000000 
						CHANNELS 3 Yrotation Zrotation Xrotation
						JOINT rHand
						{
							OFFSET -8.370511 0.000000 0.000000 
							CHANNELS 3 Zrotation Yrotation Xrotation
							End Site
							{
								OFFSET -4.083176 0.000000 0.000000 
							}
						}
					}
				}
			}
		}
	}
	JOINT lThigh
	{
		OFFSET 5.308129 -1.633274 1.361059 
		CHANNELS 3 Xrotation Zrotation Yrotation
		JOINT lShin
		{
			OFFSET -2.041588 -20.007561 0.000000 
			CHANNELS 3 Xrotation Zrotation Yrotation
			JOINT lFoot
			{
				OFFSET 0.000000 -19.190928 -1.224953 
				CHANNELS 3 Xrotation Yrotation Zrotation
				End Site
				{
					OFFSET 0.000000 -2.449906 4.627600 
				}
			}
		}
	}
	JOINT rThigh
	{
		OFFSET -5.308129 -1.633274 1.361059 
		CHANNELS 3 Xrotation Zrotation Yrotation
		JOINT rShin
		{
			OFFSET 2.041588 -20.007561 0.000000 
			CHANNELS 3 Xrotation Zrotation Yrotation
			JOINT rFoot
			{
				OFFSET 0.000000 -19.190928 -1.224953 
				CHANNELS 3 Xrotation Yrotation Zrotation
				End Site
				{
					OFFSET 0.000000 -2.449906 4.627600 
				}
			}
		}
	}
}
MOTION
Frames: 6
Frame Time: 0.033333
-62.510136 30.773310 23.051357 -36.240231 -3.242188 -2.578677 0.000000 0.000000 0.000000 41.250000 0.917969 1.933594 20.351563 -0.136719 5.703102 -6.123047 5.000000 -0.761719 -6.699219 -1.875000 24.990232 -46.835938 -60.039063 9.366540 -66.289063 4.062500 59.403603 -39.521484 -1.523438 -1.660416 5.253906 8.486328 24.980467 28.417969 61.289063 6.074218 60.166016 -1.894531 38.496414 21.738281 -9.882813 -4.853515 -47.131329 21.441317 4.173178 85.055946 1.582230 -16.143175 -1.202104 -0.066920 1.515285 -46.108120 -14.236727 -4.794265 77.039818 -2.207427 -9.510599 5.804727 -0.067727 -0.616177 
-62.500648 30.771824 23.038849 -36.533203 -3.261719 -2.626954 0.000000 0.000000 0.000000 41.142582 0.986328 2.314621 20.859375 1.611328 7.197540 -7.285156 1.904297 3.428058 -7.197265 -1.748047 24.990534 -47.451172 -60.000000 10.294277 -65.468750 3.789063 59.354820 -39.238277 -1.845703 -1.553049 4.853516 9.472657 24.978861 27.666018 60.683594 6.258516 59.990234 -1.738281 38.105762 20.937500 -9.658202 -4.775391 -46.843578 21.385654 4.111390 85.042313 1.600720 -15.944235 -1.180757 -0.054346 1.415260 -45.836620 -14.100771 -4.697475 77.012459 -2.286623 -9.629945 5.846430 -0.026276 -0.541254 
-62.480534 30.748629 23.069283 -36.357422 -3.164063 -2.647023 0.000000 0.000000 0.000000 40.761723 1.025391 2.187675 20.146484 3.017578 8.301295 -5.458984 -1.455078 7.499752 -6.943359 -1.835938 24.990232 -48.164059 -60.214844 11.065744 -64.697266 3.574219 59.726563 -39.169918 -2.226563 -1.406629 5.712891 9.179688 24.980467 28.554688 60.273434 6.570981 59.755856 -1.611328 38.427738 20.576170 -9.677734 -4.765625 -47.056656 21.179647 4.014041 85.115395 1.641089 -15.750604 -1.283077 -0.088492 1.255457 -46.117184 -13.992112 -4.420255 77.185036 -2.373370 -9.634423 5.818597 -0.055009 -0.273901 
-62.465435 30.743443 23.041838 -36.484379 -3.242188 -2.334007 0.000000 0.000000 0.000000 40.634766 1.279297 2.314662 20.087893 4.921875 9.512557 -4.892578 -4.960938 11.883922 -7.265625 -1.435547 24.990234 -49.433594 -60.537106 11.983685 -63.759769 3.281250 59.687500 -38.544922 -2.255859 -1.435547 5.097656 9.492188 24.990232 28.486326 60.449215 6.796876 59.335938 -1.406250 38.027344 21.113281 -9.658202 -4.775391 -47.080029 20.869143 3.821242 85.083359 1.707687 -15.461287 -1.201600 -0.057745 1.267207 -45.913391 -14.129280 -4.547597 77.140244 -2.325445 -9.685242 5.859182 0.001695 -0.163385 
-62.449646 30.734289 23.011805 -36.865231 -3.164063 -2.422414 0.000000 0.000000 0.000000 40.751953 1.201172 2.461142 20.244141 6.123047 10.850650 -4.726563 -7.080078 15.175782 -7.392578 -1.181641 24.990437 -49.941406 -60.937500 12.294922 -63.203129 3.115234 59.501949 -38.515629 -1.738281 -1.621094 5.078125 9.316406 24.990232 28.691404 60.595703 6.933594 58.964844 -1.328125 38.769756 20.830080 -9.677735 -4.777033 -46.652760 20.748020 3.910662 85.006516 1.738452 -15.384161 -1.118943 -0.086639 1.171759 -45.597267 -14.108361 -4.468221 77.050369 -2.421912 -9.734431 5.966297 -0.005164 -0.237224 
-62.446766 30.703899 22.991198 -37.216797 -3.076172 -2.441931 0.000000 0.000000 0.000000 40.693363 1.142578 2.529492 20.507813 7.255858 11.904296 -4.462891 -9.072267 18.125000 -7.539062 -1.308594 24.990458 -49.746090 -61.005856 12.481691 -62.929688 3.144531 61.230473 -38.798828 -2.343750 -1.396884 4.980468 9.619140 24.980465 28.916016 60.322262 6.961609 58.759762 -1.259766 39.365231 20.595703 -9.599608 -4.736328 -46.353546 20.564526 3.836261 85.028587 1.758596 -15.282079 -1.134026 -0.078949 1.007063 -45.365780 -14.119523 -4.373946 77.085495 -2.471555 -9.684096 6.025151 0.001504 -0.183840 
